<svg id="mushrooms" xmlns="http://www.w3.org/2000/svg" width="27.932" height="28.416" viewBox="0 0 27.932 28.416">
  <path id="Path_3" data-name="Path 3" d="M157.348,7.635a7.555,7.555,0,0,0-2.64-6.133A12.335,12.335,0,0,0,140.114.422,7.541,7.541,0,0,0,136.6,6.1c-.115,1.545,1.683,2.549,3.209,3.12a21.678,21.678,0,0,0,4,1.008l-2.094,13.515a2.656,2.656,0,0,0,2.217,3.032c.07.011.141.019.211.024l2.7.138c.067,0,.135.007.2.007a2.536,2.536,0,0,0,1.785-.643,2.752,2.752,0,0,0,.863-2.059L149.6,10.659a21.611,21.611,0,0,0,4.109-.408c1.595-.34,3.519-1.068,3.634-2.614Zm-9.125,18.018a1.685,1.685,0,0,1-1.317.4l-2.225-.1.729-5.148-.876-.124-.731,5.159a1.77,1.77,0,0,1-1.21-1.959l2.1-13.521q.553.074,1.128.131l-.4,3.563.88.1.4-3.584h0c.686.051,1.361.08,2.018.09l.086,13.591a1.881,1.881,0,0,1-.582,1.407Zm-1.457-15.97a25.125,25.125,0,0,1-6.645-1.292c-1.758-.657-2.694-1.447-2.636-2.225.285-3.854,4.3-6.75,9.136-6.75q.448,0,.9.033c5.233.385,9.244,4.03,8.942,8.124-.055.778-1.1,1.422-2.932,1.813a25.127,25.127,0,0,1-6.764.3Z" transform="translate(-129.435 1.472)" fill="#2c6938"/>
  <path id="Path_4" data-name="Path 4" d="M9.809,214.71a9.63,9.63,0,0,0,1.224.072c.336,0,.688-.014,1.051-.043l.543,6.09a2.213,2.213,0,0,0,2.4,2.006c.076-.007.153-.018.228-.033l1.352-.267a2.213,2.213,0,0,0,1.686-2.824l-1.826-5.9a10.689,10.689,0,0,0,1.672-.747c1.643-.934,1.843-1.866,1.722-2.484a5.58,5.58,0,0,0-2.665-3.715,6.7,6.7,0,0,0-4.766-.8,6.169,6.169,0,0,0-5.164,6.993c.122.617.66,1.4,2.536,1.644Zm7.642,5.263a1.328,1.328,0,0,1-.877,1.66,1.243,1.243,0,0,1-.134.034l-1.315.259-.387-3.093-.879.111.359,2.866a1.338,1.338,0,0,1-.709-1.059l-.544-6.1c.37-.049.746-.111,1.126-.185.533-.105,1.051-.232,1.541-.375Zm-4.844-13.031a6.189,6.189,0,0,1,1.2-.118,5.688,5.688,0,0,1,2.943.8A4.7,4.7,0,0,1,19,210.754c.2.991-2.036,2.238-5.08,2.838s-5.581.294-5.777-.7A5.282,5.282,0,0,1,12.607,206.942Z" transform="translate(-7.17 -194.463)" fill="#2c6938"/>
</svg>
